<svg id="Layer_1" data-name="Layer 1" xmlns="http://www.w3.org/2000/svg" viewBox="0 0 926 926"><defs><style>.cls-1{fill:#ffc000;}.cls-2{font-size:119.74px;}.cls-2,.cls-4{font-family:Linearicons-Free, Linearicons-Free;}.cls-3{fill:none;stroke:#000;stroke-miterlimit:10;stroke-width:12px;}.cls-4{font-size:293.7px;}</style></defs><title>logo</title><rect class="cls-1" width="926" height="926"/><text class="cls-2" transform="translate(563.85 659.8) rotate(155.43)">I</text><text class="cls-2" transform="translate(455.89 683.62) rotate(-175.6)">I</text><text class="cls-2" transform="matrix(-0.84, -0.55, 0.55, -0.84, 349.87, 652.31)">I</text><text class="cls-2" transform="matrix(-0.47, -0.88, 0.88, -0.47, 272.27, 573.88)">I</text><text class="cls-2" transform="matrix(0.02, -1, 1, 0.02, 242, 467.45)">I</text><text class="cls-2" transform="matrix(0.5, -0.87, 0.87, 0.5, 266.98, 359.73)">I</text><text class="cls-2" transform="matrix(-0.91, 0.41, -0.41, -0.91, 563.43, 660.01)">I</text><text class="cls-2" transform="translate(455.41 683.61) rotate(-175.48)">I</text><text class="cls-2" transform="matrix(-0.84, -0.55, 0.55, -0.84, 349.46, 652.06)">I</text><text class="cls-2" transform="translate(272.03 573.47) rotate(-117.83)">I</text><text class="cls-2" transform="translate(241.99 466.97) rotate(-88.9)">I</text><text class="cls-2" transform="translate(267.2 359.31) rotate(-60.13)">I</text><text class="cls-2" transform="translate(560.63 661.4) rotate(156.36)">I</text><text class="cls-2" transform="translate(452.29 683.47) rotate(-174.67)">I</text><text class="cls-2" transform="matrix(-0.83, -0.56, 0.56, -0.83, 346.79, 650.43)">I</text><text class="cls-2" transform="translate(270.48 570.76) rotate(-117.02)">I</text><text class="cls-2" transform="translate(241.94 463.85) rotate(-88.1)">I</text><text class="cls-2" transform="matrix(0.51, -0.86, 0.86, 0.51, 268.66, 356.55)">I</text><path class="cls-3" d="M285.24,249.12s119.37-94.76,248.59-52.92S719.66,331.57,733.2,435c0,0,17.32,115.49-73.35,212.22"/><polygon points="648.64 584.42 660.64 584.07 662.35 643.21 721.22 637.18 722.43 649.13 650.73 656.46 648.64 584.42"/><text class="cls-4" transform="translate(322.59 586)">train</text></svg>